<svg width="1096" height="230" viewBox="0 0 1096 230" fill="none" xmlns="http://www.w3.org/2000/svg">
<path d="M72.8223 92.0002H169.267V207H72.8223V230H193.542V69.0002H72.8223V92.0002Z" fill="#56C59F"/>
<path d="M299.209 26.68C300.085 26.6884 300.953 26.5259 301.76 26.2026C302.568 25.8794 303.297 25.4022 303.902 24.8006C304.536 24.2238 305.038 23.5297 305.378 22.7611C305.718 21.9925 305.888 21.1658 305.879 20.332C305.89 19.5087 305.72 18.6922 305.38 17.935C305.039 17.1779 304.536 16.4968 303.902 15.9357C303.286 15.3507 302.552 14.8889 301.745 14.5774C300.938 14.2659 300.073 14.1111 299.202 14.122C298.342 14.1076 297.487 14.2611 296.692 14.5731C295.897 14.885 295.177 15.3488 294.578 15.9357C293.961 16.5071 293.474 17.1926 293.147 17.9499C292.82 18.7072 292.66 19.5201 292.677 20.3386C292.677 22.0603 293.306 23.552 294.578 24.8006C295.85 26.0492 297.391 26.68 299.209 26.68Z" fill="#00301E"/>
<path d="M283.965 26.68C284.84 26.6879 285.707 26.5251 286.513 26.2019C287.319 25.8786 288.047 25.4017 288.651 24.8006C289.285 24.2243 289.788 23.5302 290.128 22.7615C290.468 21.9928 290.638 21.1659 290.628 20.332C290.64 19.5086 290.47 18.692 290.13 17.9348C289.789 17.1776 289.285 16.4966 288.651 15.9357C288.037 15.3517 287.305 14.8904 286.501 14.5789C285.696 14.2674 284.834 14.1121 283.965 14.122C283.103 14.1067 282.248 14.2597 281.451 14.5717C280.655 14.8837 279.934 15.348 279.334 15.9357C278.717 16.5068 278.23 17.1923 277.903 17.9496C277.576 18.707 277.416 19.5201 277.433 20.3386C277.433 22.0603 278.055 23.552 279.334 24.8006C280.599 26.0492 282.147 26.68 283.965 26.68Z" fill="#00301E"/>
<path d="M338.806 86.1974C337.93 86.1873 337.06 86.3483 336.252 86.6704C335.444 86.9926 334.713 87.469 334.106 88.0702C333.475 88.6479 332.975 89.3425 332.638 90.1111C332.3 90.8797 332.132 91.7059 332.143 92.5388C332.143 94.2605 332.793 95.7259 334.113 96.9417C335.426 98.1442 336.988 98.7488 338.806 98.7488C339.668 98.7638 340.523 98.6105 341.32 98.2985C342.116 97.9866 342.837 97.5225 343.437 96.9351C344.053 96.3633 344.54 95.6777 344.867 94.9205C345.194 94.1633 345.354 93.3506 345.338 92.5322C345.349 91.7051 345.186 90.8843 344.859 90.118C344.531 89.3517 344.045 88.6555 343.431 88.0702C342.841 87.4678 342.124 86.9898 341.328 86.6672C340.531 86.3446 339.672 86.1845 338.806 86.1974Z" fill="#00301E"/>
<path d="M297.157 63.6772H290.487C287.763 63.6772 286.409 62.3432 286.409 59.6686V49.9758C286.409 48.6746 286.768 47.6232 287.494 46.8018C287.861 46.3939 288.322 46.0712 288.841 45.8582C289.359 45.6453 289.922 45.5477 290.487 45.5729H297.157V63.6772ZM332.27 59.4123C332.27 62.2578 330.777 63.6838 327.777 63.6838H310.083V33.1464H290.625C285.814 33.1464 281.867 34.4804 278.785 37.1549C275.156 40.2632 273.338 44.4492 273.338 49.7064V59.4123C273.338 63.9861 274.7 67.7778 277.423 70.8006C280.692 74.3361 285.178 76.1038 290.902 76.1038H328.047C332.768 76.1038 336.715 74.7698 339.894 72.0952C343.516 68.9869 345.334 64.8469 345.334 59.6752V33.1464H332.27V59.4123Z" fill="#00301E"/>
<path d="M323.561 86.1974C322.685 86.1873 321.815 86.3483 321.007 86.6704C320.198 86.9926 319.468 87.469 318.861 88.0702C318.229 88.6473 317.728 89.3417 317.389 90.1103C317.05 90.8789 316.88 91.7055 316.891 92.5388C316.891 94.2605 317.555 95.7259 318.868 96.9417C320.181 98.1442 321.743 98.7488 323.561 98.7488C324.423 98.7638 325.278 98.6105 326.075 98.2985C326.871 97.9866 327.592 97.5225 328.192 96.9351C328.808 96.3633 329.295 95.6777 329.622 94.9205C329.949 94.1633 330.109 93.3506 330.093 92.5322C330.105 91.7051 329.942 90.8841 329.614 90.1178C329.286 89.3515 328.801 88.6553 328.185 88.0702C327.595 87.4678 326.879 86.9898 326.082 86.6672C325.286 86.3446 324.427 86.1845 323.561 86.1974Z" fill="#00301E"/>
<path d="M373.377 33.1463H365.753V45.5663H372.284C375.913 45.5663 378.727 46.5586 380.717 48.5432C382.812 50.5278 383.848 53.2878 383.848 56.8232C383.848 59.3269 383.42 61.0946 382.556 62.1263C381.699 63.1646 380.22 63.6837 378.132 63.6837H357.99V76.1037H379.224C384.574 76.1037 388.839 74.5923 392.025 71.5695C395.461 68.2969 397.189 63.5983 397.189 57.4738C397.189 51.0863 395.689 45.8226 392.696 41.6826C388.618 35.9918 382.176 33.1463 373.377 33.1463Z" fill="#00301E"/>
<path d="M481.165 57.2107C478.172 53.9316 475.262 51.4279 472.455 49.7062C474.992 46.4336 477.895 44.7907 481.165 44.7907C484.614 44.7907 487.468 46.4336 489.736 49.7062C486.653 51.6907 483.791 54.1944 481.165 57.2107ZM431.356 63.6836H424.817C422.094 63.6836 420.739 62.2576 420.739 59.4122V49.5813C420.739 46.9067 422.094 45.5727 424.817 45.5727H431.356V63.6836ZM610.587 59.4122C610.587 62.2576 609.135 63.6836 606.232 63.6836H595.484V33.1462L582.42 35.6762V63.6836H571.672V33.1462L558.608 35.6762V63.6836H547.707V33.1462L534.782 35.6762V63.6836H493.136C496.945 59.1099 500.712 55.7059 504.431 53.4584V52.4267C504.431 46.9067 502.253 42.2476 497.899 38.4493C493.268 34.4867 487.69 32.5022 481.158 32.5022C475.531 32.5022 470.541 34.0136 466.186 37.0299C460.657 40.8216 457.892 45.829 457.892 52.039V53.4584C461.334 55.7059 465.094 59.1099 469.179 63.6836H444.413V33.1462H425.225C420.145 33.1462 416.018 34.5722 412.846 37.4176C409.307 40.6047 407.537 44.7053 407.537 49.7062V59.675C407.537 63.9004 408.892 67.5213 411.615 70.5376C414.975 74.2504 419.516 76.1036 425.232 76.1036H431.487V77.0104C431.487 80.375 429.808 82.9576 426.456 84.7713C422.999 86.7558 418.237 87.7481 412.161 87.7481H410.938L419.239 98.7487C427.949 98.4004 434.349 96.3764 438.427 92.6636C442.422 89.1281 444.42 83.779 444.42 76.6227V76.1036H473.679C476.402 76.1036 478.898 75.3741 481.165 73.9021C483.522 75.3741 486.017 76.1036 488.65 76.1036H606.101C611.174 76.1036 615.308 74.5921 618.48 71.5693C621.839 68.4676 623.519 64.505 623.519 59.675V15.6793H610.594L610.587 59.4122Z" fill="#00301E"/>
<path d="M724.64 26.6799C725.507 26.6925 726.367 26.5316 727.165 26.2079C727.963 25.8841 728.68 25.4046 729.271 24.8005C729.886 24.2142 730.37 23.5166 730.697 22.7491C731.023 21.9816 731.185 21.1597 731.172 20.3319C731.186 19.5147 731.026 18.7032 730.699 17.9472C730.372 17.1912 729.886 16.5067 729.271 15.9357C728.67 15.3492 727.949 14.8857 727.152 14.5738C726.356 14.2619 725.501 14.1082 724.64 14.1219C723.769 14.111 722.904 14.2658 722.097 14.5773C721.29 14.8888 720.556 15.3506 719.939 15.9357C719.305 16.4976 718.802 17.1798 718.463 17.9383C718.124 18.6967 717.956 19.5144 717.97 20.3385C717.97 22.0602 718.626 23.5519 719.946 24.8005C721.26 26.0491 722.822 26.6734 724.647 26.6734" fill="#00301E"/>
<path d="M709.398 26.6799C710.265 26.6925 711.125 26.5316 711.923 26.2079C712.721 25.8841 713.438 25.4046 714.029 24.8005C714.643 24.2142 715.128 23.5166 715.455 22.7491C715.781 21.9816 715.943 21.1597 715.929 20.3319C715.944 19.5147 715.783 18.7032 715.457 17.9472C715.13 17.1912 714.644 16.5067 714.029 15.9357C713.428 15.3492 712.707 14.8857 711.91 14.5738C711.114 14.2619 710.259 14.1082 709.398 14.1219C708.526 14.111 707.662 14.2658 706.855 14.5773C706.047 14.8888 705.314 15.3506 704.697 15.9357C704.063 16.4976 703.56 17.1798 703.221 17.9383C702.881 18.6967 702.713 19.5144 702.727 20.3385C702.727 22.0602 703.384 23.5519 704.704 24.8005C706.018 26.0491 707.58 26.6734 709.404 26.6734" fill="#00301E"/>
<path d="M741.646 59.0246C741.646 62.1263 740.243 63.6838 737.43 63.6838H696.462C693.559 63.6838 692.107 62.1263 692.107 59.0181V41.0452L679.182 49.0624V59.6818C679.182 64.4198 680.633 68.2641 683.536 71.1949C686.716 74.474 691.16 76.1103 696.877 76.1103H737.43C742.241 76.1103 746.229 74.7763 749.402 72.1018C752.941 69.0789 754.717 64.9389 754.717 59.6818V33.1464H741.653L741.646 59.0246Z" fill="#00301E"/>
<path d="M808.336 59.6684V49.7127C808.336 48.5102 808.724 47.5113 809.491 46.7359C809.886 46.3462 810.365 46.0409 810.894 45.8404C811.423 45.6398 811.991 45.5486 812.56 45.5727H832.287V33.1527H812.961C808.157 33.1527 804.113 34.4933 800.851 37.1613C797.125 40.2696 795.266 44.4556 795.266 49.7127V59.6816C795.266 61.5741 795.494 62.9147 795.957 63.6901H784.794C781.891 63.6901 780.439 62.3101 780.439 59.5502V15.6793H767.514V60.0561C767.514 64.1173 768.779 67.6527 771.315 70.669C774.398 74.2964 778.483 76.1036 783.564 76.1036H838.549V63.6836H812.56C809.74 63.6836 808.336 62.343 808.336 59.675" fill="#00301E"/>
<path d="M917.62 26.6799C918.486 26.6915 919.345 26.5303 920.142 26.2065C920.938 25.8828 921.655 25.4038 922.244 24.8005C922.859 24.2139 923.343 23.5164 923.67 22.7489C923.996 21.9815 924.158 21.1597 924.145 20.3319C924.16 19.5147 923.999 18.7032 923.672 17.9472C923.345 17.1912 922.859 16.5067 922.244 15.9357C921.643 15.3492 920.922 14.8857 920.126 14.5738C919.33 14.2619 918.474 14.1082 917.613 14.1219C916.743 14.1119 915.88 14.2671 915.074 14.5786C914.268 14.89 913.536 15.3514 912.92 15.9357C912.286 16.4976 911.783 17.1798 911.443 17.9383C911.104 18.6967 910.936 19.5144 910.95 20.3385C910.95 22.0602 911.607 23.5519 912.92 24.8005C914.233 26.0491 915.795 26.6799 917.62 26.6799Z" fill="#00301E"/>
<path d="M923.061 59.0246C923.061 62.1263 921.609 63.6838 918.706 63.6838H912.306V49.9692C912.306 47.0318 913.667 45.5664 916.391 45.5664H923.061V59.0246ZM872.844 63.6838H866.313C863.589 63.6838 862.227 62.2578 862.227 59.4123V49.5749C862.227 46.9069 863.589 45.5664 866.306 45.5664H872.844V63.6838ZM904.004 37.8055C900.825 40.9072 899.242 44.8764 899.242 49.7064V63.6838H885.908V33.1464H866.72C861.633 33.1464 857.507 34.5724 854.334 37.4178C850.795 40.6049 849.025 44.7121 849.025 49.7064V59.6752C849.025 63.9006 850.387 67.5215 853.103 70.5378C856.463 74.2506 861.004 76.1038 866.72 76.1038H872.976V77.0106C872.976 80.3752 871.296 82.9578 867.944 84.7715C864.488 86.756 859.732 87.7483 853.656 87.7483H852.426L860.728 98.7489C869.437 98.4006 875.837 96.3766 879.922 92.6637C883.911 89.1283 885.908 83.7792 885.908 76.6229V76.1038H918.706C923.607 76.1038 927.595 74.7698 930.685 72.0952C934.307 69.0723 936.125 64.9323 936.125 59.6752V33.1464H916.798C911.442 33.1464 907.177 34.6972 904.004 37.8055Z" fill="#00301E"/>
<path d="M1026.77 70.2814C1026.77 73.2123 1024.95 74.6843 1021.32 74.6843C1017.69 74.6843 1015.87 73.2123 1015.87 70.2814V49.1871C1015.87 46.2563 1017.69 44.7909 1021.32 44.7909C1024.95 44.7909 1026.77 46.2563 1026.77 49.1937V70.2814ZM1054.8 59.4123C1054.8 62.2577 1053.34 63.6837 1050.44 63.6837H1039.69V49.1937C1039.69 44.4491 1038.19 40.5654 1035.2 37.5491C1031.76 34.178 1027.13 32.5023 1021.32 32.5023C1016.51 32.5023 1012.47 33.6194 1009.21 35.8669C1005.04 38.8897 1002.95 43.3254 1002.95 49.1937V63.6771H987.977V56.6983C987.977 50.4883 986.297 45.264 982.938 41.0386C978.763 35.7814 972.597 33.1463 964.434 33.1463H956.54V45.5663H963.342C971.056 45.5663 974.913 49.0623 974.913 56.0477V63.6837H948.785V76.1037H1003.76C1004.94 79.4683 1007.03 82.0968 1010.03 83.9894C1013.2 85.9805 1016.97 86.9728 1021.32 86.9728C1025.68 86.9728 1029.39 86.0003 1032.48 84.0617C1035.57 82.1231 1037.65 79.4683 1038.74 76.1103H1050.31C1055.39 76.1103 1059.52 74.5988 1062.69 71.576C1066.05 68.4677 1067.73 64.5051 1067.73 59.6751V15.6794H1054.8L1054.8 59.4123Z" fill="#00301E"/>
<path d="M1079.3 15.6793V81.7681L1093.45 76.1036V15.6793H1079.3Z" fill="#00301E"/>
<path d="M635.697 81.7617L649.846 76.1102V15.6729H635.697V81.7617Z" fill="#00301E"/>
<path d="M273.607 211.613L275.667 199.653C281.321 201.986 286.927 203.156 292.491 203.156C298.781 203.156 301.933 200.948 301.933 196.518C301.951 195.662 301.764 194.813 301.384 194.036C301.004 193.259 300.442 192.575 299.742 192.037C298.284 190.867 295.367 189.415 290.984 187.68C284.971 185.34 280.768 183.126 278.404 181.043C275.018 178.013 273.338 174.07 273.338 169.214C273.338 163.057 275.799 158.542 280.727 155.677C284.556 153.344 289.802 152.168 296.459 152.168C302.569 152.168 308.085 153.298 313.013 155.552L310.684 167.256C305.21 164.916 300.33 163.747 296.044 163.747C290.21 163.747 287.293 165.521 287.293 169.083C287.293 170.206 287.909 171.225 289.139 172.138C290.369 173.052 292.899 174.281 296.735 175.845C303.115 178.362 307.587 180.74 310.145 182.994C313.877 186.293 315.744 190.368 315.744 195.224C315.744 201.992 313.511 207.059 309.039 210.443C305.12 213.394 299.694 214.866 292.768 214.866C285.192 214.866 278.805 213.782 273.607 211.613Z" fill="#00301E"/>
<path d="M348.991 191.715L355.419 170.384L361.848 191.715H348.991ZM362.677 153.206H348.175L327.377 213.953H342.286L345.846 202.637H364.999L368.559 213.953H383.607L362.677 153.206Z" fill="#00301E"/>
<path d="M434.917 192.103V158.897L449.28 153.213V193.272C449.28 199.173 447.407 204.023 443.667 207.841C439.202 212.52 432.401 214.866 423.283 214.866C413.067 214.866 405.775 211.961 401.4 206.152C398.656 202.505 397.287 198.214 397.287 193.272V158.904L411.526 153.213V192.103C411.526 195.395 412.563 198.043 414.664 200.034C416.669 202.117 419.544 203.156 423.283 203.156C427.479 203.156 430.583 201.855 432.587 199.252C434.135 197.347 434.917 194.961 434.917 192.103Z" fill="#00301E"/>
<path d="M508.87 190.933C508.87 197.964 504.999 201.467 497.244 201.467H481.85V165.699H497.244C504.992 165.699 508.87 169.214 508.87 176.239V190.933ZM516.943 161.145C512.747 155.861 506.547 153.213 498.336 153.213H468.842V213.959H498.336C506.547 213.959 512.747 211.311 516.943 206.021C520.316 201.769 522.01 196.525 522.01 190.282V176.883C522.01 170.64 520.316 165.396 516.943 161.145Z" fill="#00301E"/>
<path d="M556.801 213.953H542.576V158.904L556.801 153.213V213.953Z" fill="#00301E"/>
<path d="M675.69 191.715L682.119 170.384L688.547 191.715H675.69ZM689.376 153.206H674.868L654.076 213.953H668.986L672.538 202.637H691.699L695.251 213.953H710.306L689.376 153.206Z" fill="#00301E"/>
<path d="M746.153 213.953H732.053V190.019L712.215 153.213H727.408L739.034 177.402L750.798 153.213H765.853L746.153 190.019V213.953Z" fill="#00301E"/>
<path d="M846.981 213.953H834.401V167L821.129 213.953H805.937L792.804 167V213.953H780.217V153.213H801.147L813.595 201.204L827.558 153.213H846.981V213.953Z" fill="#00301E"/>
<path d="M905.398 213.953H866.684V153.213H907.451L905.398 164.529H880.909V177.277H903.345L901.431 188.587H880.909V202.637H907.451L905.398 213.953Z" fill="#00301E"/>
<path d="M976.535 213.953H964.501L937.544 175.582V213.959H924.688V153.213H936.728L963.679 191.583V153.206H976.535V213.953Z" fill="#00301E"/>
<path d="M1023.19 213.953H1008.96V164.529H993.635V153.213H1039.74L1037.69 164.529H1023.19V213.953Z" fill="#00301E"/>
<path d="M1053.28 211.613L1055.34 199.653C1060.99 201.986 1066.6 203.156 1072.16 203.156C1078.45 203.156 1081.61 200.948 1081.61 196.518C1081.62 195.662 1081.44 194.813 1081.06 194.036C1080.68 193.259 1080.11 192.575 1079.41 192.037C1077.96 190.867 1075.04 189.415 1070.66 187.68C1064.64 185.34 1060.44 183.126 1058.08 181.043C1054.7 178.013 1053.01 174.07 1053.01 169.214C1053.01 163.057 1055.47 158.542 1060.4 155.677C1064.23 153.344 1069.47 152.168 1076.13 152.168C1082.24 152.168 1087.76 153.298 1092.69 155.552L1090.36 167.256C1084.89 164.916 1080 163.747 1075.72 163.747C1069.88 163.747 1066.97 165.521 1066.97 169.083C1066.97 170.206 1067.58 171.225 1068.81 172.138C1070.04 173.052 1072.57 174.281 1076.41 175.845C1082.79 178.362 1087.26 180.74 1089.82 182.994C1093.55 186.293 1095.42 190.368 1095.42 195.224C1095.42 201.992 1093.18 207.059 1088.71 210.443C1084.79 213.394 1079.37 214.866 1072.44 214.866C1064.86 214.866 1058.48 213.782 1053.28 211.613Z" fill="#00301E"/>
<path d="M633.696 179.88C633.696 182.567 632.327 183.908 629.59 183.908H614.128V165.705H629.59C630.869 165.705 631.871 166.113 632.597 166.934C633.357 167.835 633.748 168.967 633.696 170.121V179.88ZM641.354 157.248C638.258 154.553 634.29 153.213 629.452 153.213H601.133V213.953H615.233V196.394H629.182C634.926 196.394 639.44 194.619 642.723 191.064C645.46 188.028 646.829 184.217 646.829 179.617V169.858C646.829 164.575 645.004 160.369 641.354 157.241" fill="#00301E"/>
<path d="M120.727 138H24.2822V23H120.727V0H0V161H120.727V138Z" fill="#007449"/>
</svg>
