<svg width="1000" height="320" viewBox="0 0 1000 320" fill="none" xmlns="http://www.w3.org/2000/svg">
<path d="M182.505 163.278C182.505 175.096 178.988 185.051 171.928 193.109C164.56 201.553 154.987 205.792 143.267 205.792C131.517 205.792 121.975 201.553 114.607 193.109C107.544 185.051 104 175.096 104 163.278C104 151.427 107.544 141.475 114.607 133.446C122.057 125.081 131.63 120.901 143.267 120.901C154.987 120.901 164.56 125.081 171.928 133.446C178.988 141.475 182.505 151.427 182.505 163.278ZM159.172 163.278C159.172 157.925 157.89 153.406 155.322 149.753C152.45 145.601 148.429 143.538 143.267 143.538C138.104 143.538 134.085 145.601 131.209 149.753C128.615 153.406 127.331 157.925 127.331 163.278C127.331 168.601 128.615 173.174 131.209 176.936C134.085 181.089 138.104 183.155 143.267 183.155C148.429 183.155 152.45 181.089 155.322 176.936C157.89 173.174 159.172 168.601 159.172 163.278ZM266.87 163.278C266.87 174.317 263.689 183.963 257.297 192.215C250.46 201.247 241.641 205.792 230.924 205.792C223.36 205.792 216.943 203.59 211.696 199.241C211.696 200.242 211.808 202.669 212.032 206.547C212.255 210.446 212.365 213.625 212.365 216.134C212.365 229.994 208.235 236.906 199.976 236.906C196.598 236.906 193.836 235.707 191.63 233.336C189.454 230.941 188.365 228.064 188.365 224.667V134.534C188.365 131.244 189.482 128.399 191.714 126.004C193.946 123.633 196.71 122.437 200.004 122.437C204.969 122.437 208.598 124.913 210.887 129.851C215.771 123.885 222.441 120.901 230.896 120.901C241.641 120.901 250.432 125.359 257.297 134.311C263.661 142.592 266.87 152.238 266.87 163.278ZM243.537 163.278C243.537 157.925 242.229 153.406 239.661 149.753C236.784 145.601 232.767 143.538 227.603 143.538C222.441 143.538 218.422 145.601 215.547 149.753C212.979 153.406 211.696 157.925 211.696 163.278C211.696 168.601 212.979 173.174 215.547 176.936C218.422 181.089 222.441 183.155 227.603 183.155C232.767 183.155 236.784 181.089 239.661 176.936C242.229 173.174 243.537 168.601 243.537 163.278ZM351.764 160.771C351.764 164.67 350.843 167.346 349 168.855C347.16 170.33 344.285 171.083 340.406 171.083H298.292C298.292 175.544 300.387 178.972 304.572 181.367C307.949 183.238 312.079 184.189 316.963 184.189C320.761 184.189 325.308 182.929 330.639 180.452C335.969 177.941 339.4 176.712 340.882 176.712C343.588 176.712 345.875 177.689 347.774 179.696C349.642 181.677 350.593 184.074 350.593 186.835C350.593 193.216 345.822 198.184 336.274 201.751C328.991 204.425 321.596 205.792 314.035 205.792C301.867 205.792 292.043 201.751 284.536 193.695C277.027 185.636 273.262 175.516 273.262 163.278C273.262 151.622 277.168 141.67 284.981 133.365C292.767 125.053 302.453 120.901 314.005 120.901C324.75 120.901 333.736 124.832 340.938 132.693C348.136 140.557 351.764 149.923 351.764 160.771ZM328.434 154.913C328.322 151.343 326.676 148.11 323.494 145.181C320.312 142.255 316.937 140.808 313.363 140.808C309.68 140.808 306.246 142.255 303.066 145.181C299.885 148.11 298.292 151.343 298.292 154.913H328.434ZM430.156 192.017C430.156 195.421 429.069 198.291 426.894 200.689C424.688 203.061 421.924 204.26 418.548 204.26C410.399 204.26 406.323 197.792 406.323 184.884C406.323 182.402 406.491 178.5 406.825 173.119C407.189 167.765 407.358 163.835 407.358 161.354C407.358 147.662 402.92 140.808 394.073 140.808C385.225 140.808 380.816 147.662 380.816 161.354C380.816 163.835 380.956 167.765 381.206 173.119C381.486 178.5 381.625 182.402 381.625 184.884C381.625 197.792 377.607 204.26 369.571 204.26C366.192 204.26 363.431 203.061 361.253 200.689C359.049 198.291 357.96 195.421 357.96 192.017V134.509C357.96 131.129 359.049 128.263 361.253 125.948C363.431 123.605 366.222 122.437 369.598 122.437C375.18 122.437 379.057 124.913 381.234 129.851C385.002 123.885 391.671 120.901 401.216 120.901C410.063 120.901 417.097 123.241 422.26 127.897C427.535 132.891 430.156 139.746 430.156 148.474V192.017ZM503.357 189.54C503.357 194.808 499.93 198.988 493.061 202.058C487.622 204.536 481.71 205.81 475.732 205.792C463.978 205.792 454.437 201.553 447.07 193.109C440.008 185.051 436.464 175.096 436.464 163.278C436.464 151.427 440.065 141.421 447.292 133.223C454.519 125.001 463.978 120.901 475.732 120.901C482.512 120.901 488.345 121.904 493.204 123.885C499.981 126.562 503.357 130.741 503.357 136.43C503.357 139.299 502.466 141.837 500.678 144.04C498.894 146.215 496.602 147.33 493.816 147.33C491.914 147.33 489.178 146.689 485.609 145.437C482.037 144.152 479.193 143.538 477.101 143.538C471.544 143.538 467.218 145.518 464.121 149.475C461.246 153.045 459.794 157.617 459.794 163.278C459.794 168.601 461.078 173.119 463.677 176.771C466.546 181.037 470.597 183.155 475.757 183.155C478.049 183.155 481.171 182.486 485.162 181.116C489.156 179.783 492.031 179.086 493.816 179.086C496.412 179.086 498.64 180.199 500.542 182.374C502.412 184.576 503.357 186.944 503.357 189.54ZM588.169 192.017C588.169 195.421 587.081 198.291 584.904 200.689C582.701 203.061 579.911 204.26 576.529 204.26C571.451 204.26 567.825 201.777 565.647 196.843C560.765 202.811 554.093 205.792 545.639 205.792C534.814 205.792 525.939 201.247 519.07 192.215C512.819 183.963 509.671 174.317 509.671 163.278C509.671 152.238 512.819 142.592 519.07 134.311C526.05 125.359 534.893 120.901 545.639 120.901C554.093 120.901 560.765 123.885 565.647 129.851C567.825 124.913 571.451 122.437 576.529 122.437C579.826 122.437 582.59 123.633 584.824 126.004C587.053 128.399 588.169 131.216 588.169 134.509V192.017ZM564.839 163.278C564.839 157.925 563.558 153.406 560.987 149.753C558.001 145.601 553.982 143.538 548.933 143.538C543.769 143.538 539.753 145.601 536.875 149.753C534.282 153.406 533.001 157.925 533.001 163.278C533.001 168.601 534.25 173.174 536.732 176.936C539.696 181.089 543.769 183.155 548.933 183.155C554.093 183.155 558.112 181.089 560.987 176.936C563.558 173.174 564.839 168.601 564.839 163.278ZM647.698 132.971C647.698 137.961 645.27 141.39 640.414 143.257C635.922 144.765 631.453 146.301 626.989 147.885C622.102 150.676 619.677 155.86 619.677 163.389V192.017C619.677 195.421 618.558 198.291 616.386 200.689C614.177 203.061 611.388 204.26 608.012 204.26C604.611 204.26 601.815 203.061 599.643 200.689C597.434 198.291 596.347 195.421 596.347 192.017V134.509C596.347 131.129 597.434 128.263 599.612 125.948C601.815 123.605 604.611 122.437 607.986 122.437C613.565 122.437 617.442 124.913 619.623 129.851C624.618 123.885 629.979 120.901 635.754 120.901C639.044 120.901 641.865 122.097 644.208 124.468C646.522 126.866 647.698 129.709 647.698 132.971ZM708.565 134.032C708.565 139.216 706.527 142.478 702.485 143.875C700.498 144.57 696.336 144.932 690.002 144.932V192.017C690.002 195.421 688.887 198.291 686.715 200.689C684.506 203.061 681.717 204.26 678.341 204.26C675.05 204.26 672.255 203.061 670.02 200.689C667.791 198.291 666.676 195.421 666.676 192.017V144.932C661.873 144.932 658.387 144.318 656.184 143.122C653.172 141.449 651.682 138.409 651.682 134.032C651.682 129.657 653.22 126.673 656.317 125.081C658.412 123.91 661.873 123.299 666.676 123.299V113.318C666.676 101.582 670.549 95.7283 678.341 95.7283C686.097 95.7283 690.002 101.582 690.002 113.318V123.299C696.336 123.299 700.498 123.661 702.485 124.356C706.527 125.75 708.565 128.987 708.565 134.032ZM896 119.875C895.937 112.719 882.699 109.471 848.433 109.471C768.034 109.471 747.636 106.04 725.809 83.094C734.992 96.8718 740.016 122.714 824.996 121.428C913.659 120.063 859.569 144.266 843.831 171.61C872.214 146.304 895.914 129.624 896 119.979V119.875ZM783.021 193.358C783.018 200.01 777.54 205.482 770.881 205.484C764.154 205.484 758.715 200.051 758.715 193.358C758.715 193.355 758.715 193.352 758.715 193.349C758.715 186.686 764.202 181.203 770.874 181.203C770.877 181.203 770.877 181.203 770.881 181.203C777.585 181.203 783.021 186.638 783.021 193.358ZM838.388 193.358C838.385 200.01 832.908 205.482 826.248 205.484C819.528 205.484 814.085 200.051 814.085 193.358C814.085 193.355 814.085 193.352 814.085 193.349C814.085 186.686 819.572 181.203 826.242 181.203C826.245 181.203 826.245 181.203 826.248 181.203C832.952 181.203 838.388 186.638 838.388 193.358Z" fill="url(#paint0_linear_193_1483)"/>
<defs>
<linearGradient id="paint0_linear_193_1483" x1="500" y1="204.766" x2="500" y2="83.0943" gradientUnits="userSpaceOnUse">
<stop stop-color="#04B6F0"/>
<stop offset="1" stop-color="#3ECAF0"/>
</linearGradient>
</defs>
</svg>
