<svg width="601" height="230" viewBox="0 0 601 230" fill="none" xmlns="http://www.w3.org/2000/svg">
<path d="M409.699 130.627L415.699 132.43C415.299 134.133 414.699 135.536 413.799 136.637C412.899 137.739 411.899 138.641 410.599 139.142C409.299 139.743 407.699 140.043 405.699 140.043C403.299 140.043 401.399 139.743 399.799 139.042C398.299 138.34 396.999 137.138 395.899 135.335C394.799 133.632 394.199 131.328 394.199 128.624C394.199 125.017 395.199 122.212 397.099 120.209C398.999 118.205 401.799 117.304 405.299 117.304C408.099 117.304 410.199 117.905 411.799 119.007C413.399 120.109 414.599 121.812 415.299 124.216L409.299 125.518C409.099 124.817 408.899 124.316 408.599 124.016C408.199 123.515 407.799 123.114 407.199 122.813C406.599 122.513 405.999 122.413 405.399 122.413C403.899 122.413 402.699 123.014 401.899 124.316C401.299 125.218 400.999 126.72 400.999 128.624C400.999 131.028 401.399 132.731 402.099 133.632C402.799 134.534 403.899 135.035 405.199 135.035C406.499 135.035 407.499 134.634 408.099 133.933C408.899 133.031 409.399 132.029 409.699 130.627Z" fill="#225E63"/>
<path d="M418.1 128.624C418.1 125.017 419.1 122.213 421.1 120.209C423.1 118.206 425.9 117.204 429.5 117.204C433.2 117.204 436 118.206 438 120.109C440 122.112 441 124.817 441 128.423C441 131.028 440.6 133.132 439.7 134.734C438.8 136.337 437.6 137.639 435.9 138.541C434.3 139.443 432.2 139.943 429.8 139.943C427.3 139.943 425.3 139.543 423.6 138.741C422 137.94 420.7 136.738 419.6 134.935C418.5 133.132 418.1 131.228 418.1 128.624ZM424.9 128.624C424.9 130.828 425.3 132.43 426.1 133.432C426.9 134.434 428 134.935 429.5 134.935C431 134.935 432.1 134.434 432.9 133.532C433.7 132.531 434.1 130.828 434.1 128.423C434.1 126.32 433.7 124.817 432.8 123.916C432 122.914 430.8 122.513 429.4 122.513C428 122.513 426.9 123.014 426.1 124.016C425.3 124.817 424.9 126.42 424.9 128.624Z" fill="#225E63"/>
<path d="M444.499 117.605H453.399L456.799 131.028L460.199 117.605H469.099V139.643H463.499V122.814L459.199 139.643H454.199L449.899 122.814V139.643H444.299V117.605H444.499Z" fill="#225E63"/>
<path d="M473.5 117.605H484.8C487.3 117.605 489.1 118.206 490.3 119.408C491.5 120.61 492.1 122.213 492.1 124.416C492.1 126.62 491.4 128.423 490.1 129.626C488.8 130.928 486.7 131.529 484 131.529H480.3V139.743H473.5V117.605ZM480.3 127.021H482C483.3 127.021 484.2 126.821 484.8 126.32C485.3 125.819 485.6 125.318 485.6 124.617C485.6 123.916 485.4 123.315 484.9 122.814C484.4 122.313 483.6 122.112 482.3 122.112H480.4V127.021H480.3Z" fill="#225E63"/>
<path d="M495.699 117.605H502.499V134.234H513.099V139.643H495.699V117.605Z" fill="#225E63"/>
<path d="M516.5 117.605H523.3V139.643H516.5V117.605Z" fill="#225E63"/>
<path d="M541.7 135.936H534L532.9 139.543H526L534.3 117.504H541.7L550 139.543H542.9L541.7 135.936ZM540.3 131.228L537.9 123.314L535.5 131.228H540.3Z" fill="#225E63"/>
<path d="M552.1 117.605H558.4L566.7 129.826V117.605H573.1V139.643H566.7L558.5 127.522V139.643H552.1V117.605Z" fill="#225E63"/>
<path d="M576.1 117.605H596.8V123.014H589.9V139.643H583.1V123.014H576.2V117.605H576.1Z" fill="#225E63"/>
<path d="M327.9 151.163L347.6 144.952L341.2 130.727C336.5 136.638 331.8 144.251 327.9 151.163ZM321.2 86.1498L282.6 0L0 16.0279L78.3 230L229 182.417C219.4 168.593 215.9 152.165 227 144.151C239.4 135.135 258.1 145.553 270 160.279C281.5 141.045 313.8 96.2674 321.2 86.1498Z" fill="#225E63"/>
<path d="M273.796 62.258C285.596 62.258 295.196 53.2423 295.196 42.0228C295.196 30.8033 285.596 21.7876 273.796 21.7876C261.996 21.7876 252.396 30.8033 252.396 42.0228C252.396 53.1421 261.996 62.258 273.796 62.258ZM256.296 70.9731H291.296V162.633H256.296V70.9731Z" fill="#FEFEFE"/>
<path d="M238.995 97.7197C239.295 97.8198 239.495 97.7197 239.495 97.4191V74.1787C239.495 73.8782 239.295 73.5777 238.995 73.3773C238.995 73.3773 234.395 70.3721 220.395 69.5707C219.695 69.17 207.395 69.0698 204.095 69.5707C153.095 73.6778 151.195 110.642 151.195 112.245V121.261C151.195 122.363 151.195 160.128 204.095 163.434C209.295 163.835 219.395 163.434 220.395 163.434C232.595 163.434 240.995 159.727 240.995 159.727C241.295 159.627 241.495 159.327 241.495 159.026V137.288C241.495 136.988 241.295 136.888 241.095 137.088C241.095 137.088 237.295 140.093 220.695 141.796C215.995 142.297 213.695 142.097 211.995 141.796C188.395 137.789 187.295 120.559 187.295 120.559C187.295 120.259 187.195 119.758 187.195 119.558V112.946C187.195 112.646 187.195 112.145 187.295 111.944C187.295 111.944 188.895 93.4122 211.995 91.4087H220.695C230.795 92.711 238.995 97.7197 238.995 97.7197Z" fill="#FEFEFE"/>
<path d="M53.9961 162.332C53.9961 162.633 54.1961 162.833 54.4961 162.833H88.5961C88.8961 162.833 89.0961 162.633 89.0961 162.332V135.686C89.0961 135.385 89.2961 135.185 89.5961 135.185C89.5961 135.185 144.096 139.092 144.096 102.528C144.096 73.5777 109.896 70.4723 98.6961 70.9732C98.4961 70.9732 54.4961 70.9732 54.4961 70.9732C54.1961 70.9732 53.9961 71.1735 53.9961 71.4741V162.332ZM88.4961 114.849V90.9078H96.8961C96.8961 90.9078 108.996 91.4087 109.996 99.7232C110.196 100.324 110.196 104.431 109.996 104.632C108.396 114.349 97.8961 114.849 97.8961 114.849H88.4961Z" fill="#FEFEFE"/>
<path d="M274.801 206.86C277.601 206.86 279.801 206.86 283.401 205.257C295.801 198.746 337.701 96.2675 381.901 64.7126C382.201 64.5122 382.501 64.2117 382.701 63.9112C383.001 63.5105 383.001 63.1098 383.001 63.1098C383.001 63.1098 383.001 61.0062 376.501 61.0062C337.201 59.9042 296.301 142.548 274.801 175.205C274.501 175.605 273.101 175.205 273.101 175.205C273.101 175.205 258.701 158.175 246.201 151.664C245.901 151.564 244.501 151.063 243.001 151.163C242.001 151.163 236.201 152.365 233.501 155.17C230.301 158.576 230.401 160.479 230.401 164.586C230.401 164.887 230.601 166.289 231.001 166.99C234.101 172.4 248.001 191.633 259.501 202.252C261.201 203.554 263.901 206.86 274.801 206.86Z" fill="#2BBC5D"/>
<path d="M393.5 33.7587H426.2C432.7 33.7587 437.9 34.6602 441.8 36.3632C445.8 38.1663 449.1 40.6707 451.6 43.8763C454.2 47.182 456.1 50.9886 457.2 55.2961C458.4 59.6036 459 64.2116 459 69.1202C459 76.7334 458.1 82.6437 456.4 86.851C454.7 91.0583 452.3 94.5644 449.2 97.4695C446.1 100.274 442.8 102.178 439.3 103.179C434.5 104.482 430.1 105.083 426.2 105.083H393.5V33.7587ZM415.5 49.8867V88.8545H420.9C425.5 88.8545 428.8 88.3536 430.7 87.3519C432.6 86.3501 434.2 84.547 435.3 82.0427C436.4 79.5383 437 75.331 437 69.621C437 62.0078 435.8 56.8989 433.3 54.094C430.8 51.2891 426.8 49.8867 421 49.8867H415.5Z" fill="#225E63"/>
<path d="M465.1 81.5418L486.1 80.2395C486.6 83.6454 487.5 86.25 488.9 88.0531C491.2 90.9582 494.4 92.3606 498.6 92.3606C501.7 92.3606 504.2 91.6594 505.9 90.1568C507.6 88.6542 508.5 86.9512 508.5 85.0479C508.5 83.2448 507.7 81.5418 506.1 80.0392C504.5 78.5366 500.7 77.2343 494.8 75.932C485.1 73.7282 478.3 70.8231 474.1 67.2169C469.9 63.6106 467.9 59.0026 467.9 53.3928C467.9 49.6864 469 46.2805 471.1 42.9747C473.2 39.669 476.4 37.1646 480.7 35.2613C485 33.358 490.8 32.4564 498.2 32.4564C507.3 32.4564 514.3 34.1594 519 37.5653C523.8 40.9712 526.6 46.3806 527.5 53.7935L506.7 54.9956C506.1 51.7901 505 49.4861 503.2 47.9834C501.4 46.4808 499 45.7796 495.9 45.7796C493.3 45.7796 491.4 46.2805 490.1 47.3824C488.8 48.4843 488.2 49.7866 488.2 51.3894C488.2 52.4913 488.7 53.5932 489.8 54.4948C490.8 55.3963 493.3 56.2979 497.2 57.0993C506.8 59.2029 513.7 61.3066 517.9 63.4103C522.1 65.5139 525.1 68.2186 527 71.324C528.9 74.4294 529.8 78.0357 529.8 81.9425C529.8 86.5505 528.5 90.7578 526 94.5645C523.5 98.4713 519.9 101.376 515.4 103.38C510.9 105.383 505.1 106.385 498.2 106.385C486.1 106.385 477.7 104.081 473 99.3728C468.4 94.6646 465.8 88.7544 465.1 81.5418Z" fill="#225E63"/>
<path d="M535.4 81.5418L556.4 80.2395C556.9 83.6454 557.8 86.25 559.2 88.0531C561.5 90.9582 564.7 92.3606 568.9 92.3606C572 92.3606 574.5 91.6594 576.2 90.1568C577.9 88.6542 578.8 86.9512 578.8 85.0479C578.8 83.2448 578 81.5418 576.4 80.0392C574.8 78.5366 571 77.2343 565.1 75.932C555.4 73.7282 548.6 70.8231 544.4 67.2169C540.3 63.6106 538.2 59.0026 538.2 53.3928C538.2 49.6864 539.3 46.2805 541.4 42.9747C543.5 39.669 546.7 37.1646 551 35.2613C555.3 33.358 561.1 32.4564 568.5 32.4564C577.6 32.4564 584.6 34.1594 589.3 37.5653C594.1 40.9712 596.9 46.3806 597.8 53.7935L577 54.9956C576.4 51.7901 575.3 49.4861 573.5 47.9834C571.7 46.4808 569.3 45.7796 566.2 45.7796C563.6 45.7796 561.7 46.2805 560.4 47.3824C559.1 48.4843 558.5 49.7866 558.5 51.3894C558.5 52.4913 559 53.5932 560.1 54.4948C561.1 55.3963 563.6 56.2979 567.5 57.0993C577.1 59.2029 584 61.3066 588.2 63.4103C592.4 65.5139 595.4 68.2186 597.3 71.324C599.2 74.4294 600.1 78.0357 600.1 81.9425C600.1 86.5505 598.8 90.7578 596.3 94.5645C593.8 98.4713 590.2 101.376 585.7 103.38C581.2 105.383 575.4 106.385 568.5 106.385C556.4 106.385 548 104.081 543.3 99.3728C538.6 94.6646 536 88.7544 535.4 81.5418Z" fill="#225E63"/>
</svg>
