<svg width="1000" height="320" viewBox="0 0 1000 320" fill="none" xmlns="http://www.w3.org/2000/svg">
<path d="M379.473 173.976C379.384 173.447 379.341 172.607 379.341 171.459C379.341 164.217 381.747 158.565 386.561 154.502C391.375 150.439 396.697 148.407 402.525 148.407C410.208 148.407 415.551 151.322 418.554 157.153L379.473 173.976ZM435.378 163.643C435.289 155.076 432.067 148.122 425.709 142.778C419.349 137.436 411.354 134.764 401.729 134.764C395.636 134.764 389.851 136.111 384.377 138.804C378.899 141.499 374.309 145.693 370.599 151.391C366.89 157.087 365.033 163.69 365.033 171.196C365.033 182.058 368.611 190.801 375.764 197.425C382.919 204.049 391.483 207.361 401.465 207.361C412.859 207.361 422.749 203.034 431.141 194.378L422.395 184.707C417.274 190.89 410.76 193.981 402.855 193.981C394.949 193.981 388.702 191.156 384.11 185.503L435.511 163.909L435.378 163.643Z" fill="#1F0047"/>
<path d="M348.016 139.134C343.908 141.962 340.661 145.582 338.278 149.996V135.823H323.441V206.299H338.278V176.094C338.278 168.059 340.133 161.655 343.844 156.886C347.551 152.118 353.071 149.732 360.403 149.732H361.198L361.065 134.761C356.47 134.852 352.122 136.309 348.016 139.134Z" fill="#1F0047"/>
<path d="M488.556 170.399C486.171 168.809 483.94 167.574 481.866 166.69C479.79 165.807 477.647 165.013 475.442 164.305C473.233 163.6 470.693 162.895 467.823 162.186C464.953 161.48 462.724 160.729 461.135 159.934C458.837 158.874 457.691 157.197 457.691 154.901C457.691 152.34 458.794 150.419 461.002 149.138C463.207 147.859 466.079 147.218 469.612 147.218C476.321 147.218 482.55 149.117 488.292 152.914L493.855 141.919C486.613 137.15 478.929 134.764 470.805 134.764C462.679 134.764 456.077 136.731 450.999 140.661C445.919 144.591 443.381 149.824 443.381 156.359C443.381 165.632 450.712 172.254 465.373 176.228C465.724 176.317 466.254 176.495 466.962 176.759C476.321 179.586 481.004 182.765 481.004 186.298C481.004 188.682 480.03 190.647 478.089 192.193C476.146 193.738 473.497 194.51 470.141 194.51C462.458 194.51 454.511 191.42 446.296 185.236L439.143 196.761C443.381 200.118 448.26 202.723 453.78 204.577C459.3 206.432 464.62 207.36 469.742 207.36C477.339 207.36 483.564 205.351 488.423 201.332C493.278 197.313 495.708 191.95 495.708 185.236C495.708 178.525 493.324 173.579 488.556 170.399Z" fill="#1F0047"/>
<path d="M292.234 159.999C289.097 163.31 283.202 164.967 274.549 164.967H256.4V127.873H272.296C280.775 127.873 287 129.198 290.975 131.849C294.949 134.498 296.936 139.025 296.936 145.428C296.936 151.832 295.368 156.686 292.234 159.999ZM303.295 121.781C296.847 116.395 286.602 113.7 272.56 113.7H240.768V206.301H256.4V179.143H272.826C286.427 179.143 296.516 176.538 303.096 171.327C309.673 166.119 312.965 157.903 312.965 146.687C312.965 135.472 309.74 127.169 303.295 121.781Z" fill="#1F0047"/>
<path d="M530.427 194.509C527.248 194.509 524.775 193.514 523.009 191.528C521.242 189.541 520.359 186.871 520.359 183.513V147.745H538.907V135.823H520.359V113.7H505.521V183.117C505.521 190.536 507.751 196.43 512.211 200.802C516.669 205.174 522.057 207.359 528.372 207.359C534.686 207.359 540.449 205.02 545.66 200.338L539.566 189.871C536.656 192.966 533.608 194.509 530.427 194.509Z" fill="#1F0047"/>
<path d="M598.334 187.819C594.27 192.103 589.327 194.243 583.497 194.243C577.669 194.243 572.589 192.125 568.262 187.886C563.934 183.645 561.772 178.148 561.772 171.392C561.772 164.635 563.892 159.005 568.13 154.5C572.37 149.996 577.446 147.745 583.366 147.745C589.281 147.745 594.27 149.996 598.334 154.5C602.397 159.005 604.428 164.615 604.428 171.326C604.427 178.039 602.395 183.536 598.334 187.819ZM604.163 148.012C598.157 139.181 590.517 134.762 581.244 134.762C571.971 134.762 563.934 138.031 557.135 144.566C550.332 151.102 546.934 159.847 546.934 170.795C546.934 181.747 550.246 190.581 556.868 197.291C563.492 204.002 571.264 207.359 580.185 207.359C584.6 207.359 588.995 206.278 593.365 204.112C597.736 201.95 601.335 198.838 604.162 194.774V206.299H618.999V135.823H604.162V148.012H604.163Z" fill="#1F0047"/>
<path d="M838.931 187.687C834.736 191.972 829.414 194.112 822.969 194.112C816.521 194.112 811.199 191.972 807.007 187.687C802.81 183.404 800.714 177.863 800.714 171.062C800.714 164.262 802.81 158.72 807.007 154.436C811.201 150.153 816.521 148.01 822.969 148.01C829.414 148.01 834.737 150.153 838.931 154.436C843.125 158.72 845.224 164.26 845.224 171.062C845.224 177.863 843.125 183.404 838.931 187.687ZM822.969 134.762C812.371 134.762 803.538 138.274 796.475 145.295C789.407 152.317 785.877 160.906 785.877 171.063C785.877 181.22 789.407 189.807 796.475 196.83C803.54 203.851 812.371 207.361 822.969 207.361C833.567 207.361 842.397 203.851 849.465 196.83C856.529 189.807 860.061 181.22 860.061 171.063C860.061 160.906 856.529 152.317 849.465 145.295C842.397 138.274 833.567 134.762 822.969 134.762Z" fill="#E2066F"/>
<path d="M919.523 187.752C915.193 191.992 910.117 194.112 904.287 194.112C898.457 194.112 893.513 191.972 889.45 187.687C885.387 183.404 883.356 177.907 883.356 171.193C883.356 164.484 885.387 158.895 889.45 154.436C893.513 149.975 898.502 147.745 904.42 147.745C910.336 147.745 915.417 149.975 919.655 154.436C923.895 158.895 926.013 164.503 926.013 171.259C926.013 178.016 923.849 183.513 919.523 187.752ZM930.783 144.566C924.07 138.031 915.989 134.762 906.539 134.762C897.088 134.762 889.45 139.224 883.62 148.144V135.824H868.783V232H883.62V195.703C890.687 203.476 898.657 207.36 907.532 207.36C916.408 207.36 924.179 203.961 930.847 197.16C937.514 190.361 940.851 181.526 940.851 170.664C940.851 159.801 937.493 151.102 930.783 144.566Z" fill="#E2066F"/>
<path d="M751.333 134.762C746.386 134.762 741.772 136.002 737.489 138.471C733.204 140.946 730.004 144.346 727.885 148.674V108.136H713.047V206.3H727.885V168.147C727.885 161.611 729.783 156.644 733.583 153.243C737.377 149.844 741.839 148.143 746.962 148.143C757.735 148.143 763.124 154.633 763.124 167.616V206.3H777.962V163.112C777.962 153.927 775.511 146.908 770.609 142.049C765.706 137.194 759.281 134.762 751.333 134.762Z" fill="#E2066F"/>
<path d="M695.307 161.788C690.493 157.638 683.34 154.415 673.846 152.118C664.352 149.823 658.149 147.679 655.233 145.692C652.32 143.706 650.862 140.836 650.862 137.081C650.862 133.329 652.32 130.524 655.233 128.671C658.149 126.815 661.879 125.887 666.429 125.887C670.976 125.887 675.588 126.682 680.272 128.272C684.951 129.861 688.66 131.893 691.4 134.367L699.743 122.576C695.505 119.046 690.471 116.305 684.642 114.363C678.813 112.421 672.938 111.448 667.024 111.448C657.837 111.448 650.132 113.768 643.906 118.402C637.68 123.039 634.568 129.641 634.568 138.207C634.568 146.774 637.304 153.134 642.779 157.284C645.516 159.491 648.653 161.281 652.184 162.648C655.717 164.018 660.884 165.519 667.686 167.152C674.485 168.788 679.276 170.597 682.058 172.584C684.841 174.571 686.232 177.352 686.232 180.93C686.232 184.507 684.752 187.377 681.793 189.541C678.833 191.707 674.838 192.787 669.804 192.787C659.736 192.787 650.02 188.725 640.659 180.598L630.857 192.389C642.072 202.371 654.922 207.36 669.407 207.36C679.297 207.36 687.29 204.843 693.385 199.808C699.478 194.775 702.526 188.218 702.526 180.136C702.526 172.053 700.12 165.941 695.307 161.788Z" fill="#E2066F"/>
<path d="M105.824 198.483C106.973 197.971 108.138 197.501 109.314 197.059C110.641 196.56 111.98 196.092 113.336 195.682C115.024 195.174 116.726 194.713 118.451 194.347C120.777 193.854 123.13 193.488 125.502 193.257C124.172 197.439 122.702 201.597 121.11 205.727C121.178 206.527 121.215 207.333 121.236 208.139C124.443 207.506 127.756 207.168 131.149 207.168C134.541 207.168 137.854 207.506 141.061 208.139C141.082 207.331 141.118 206.526 141.188 205.727C139.595 201.597 138.125 197.439 136.795 193.257C139.167 193.488 141.52 193.853 143.846 194.347C145.57 194.713 147.273 195.174 148.961 195.682C150.318 196.09 151.656 196.56 152.983 197.059C154.159 197.501 155.325 197.972 156.475 198.483C164.633 202.116 172.071 207.505 178.17 214.499C193.459 201.295 203.149 181.785 203.149 159.999C203.149 120.236 170.914 88 131.15 88C91.386 88 59.1504 120.236 59.1504 159.999C59.1504 181.785 68.8395 201.296 84.1293 214.499C90.2274 207.505 97.6651 202.115 105.824 198.483Z" fill="#A0DBE8"/>
<path d="M110.57 211.509C113.95 210.014 117.519 208.872 121.236 208.139C121.215 207.331 121.179 206.526 121.11 205.727C122.703 201.597 124.173 197.439 125.502 193.257C123.131 193.488 120.777 193.852 118.452 194.347C116.727 194.713 115.024 195.174 113.336 195.682C111.98 196.09 110.642 196.559 109.314 197.059L114.563 198.331L110.57 211.509Z" fill="#525353"/>
<path d="M98.1961 219.272C98.3276 217.93 98.4082 216.576 98.4082 215.209C98.4082 214.387 99.0756 213.72 99.898 213.72H101.207L105.824 198.484C97.6652 202.118 90.2275 207.506 84.127 214.5C87.4898 217.404 91.1206 220 94.9834 222.249C96.0117 221.211 97.0835 220.217 98.1961 219.272Z" fill="#525353"/>
<path d="M156.473 198.483L161.09 213.718H162.397C163.221 213.718 163.887 214.386 163.887 215.208C163.887 216.576 163.967 217.93 164.099 219.271C165.213 220.216 166.283 221.211 167.312 222.246C171.174 219.998 174.805 217.401 178.168 214.497C172.069 207.505 164.631 202.116 156.473 198.483Z" fill="#525353"/>
<path d="M147.736 198.331L152.983 197.059C151.656 196.56 150.317 196.092 148.961 195.682C147.273 195.174 145.571 194.713 143.846 194.347C141.52 193.854 139.167 193.488 136.795 193.257C138.125 197.439 139.595 201.597 141.187 205.727C141.119 206.527 141.082 207.332 141.061 208.139C144.78 208.872 148.348 210.014 151.729 211.509L147.736 198.331Z" fill="#525353"/>
<path d="M131.15 213.718H141.295C141.087 211.849 141.012 209.986 141.062 208.139C137.855 207.506 134.542 207.167 131.15 207.167C127.757 207.167 124.445 207.506 121.237 208.139C121.285 209.986 121.211 211.849 121.004 213.718H131.15Z" fill="black"/>
<path d="M94.9824 222.248C95.8197 222.735 96.6632 223.21 97.5204 223.664C97.8206 222.222 98.0501 220.757 98.1952 219.272C97.0825 220.217 96.0108 221.211 94.9824 222.248Z" fill="black"/>
<path d="M109.9 213.718H121.004C121.212 211.849 121.286 209.986 121.237 208.139C117.519 208.872 113.949 210.014 110.57 211.509L109.9 213.718Z" fill="black"/>
<path d="M164.1 219.272C164.245 220.757 164.474 222.222 164.774 223.664C165.632 223.21 166.476 222.735 167.312 222.248C166.284 221.211 165.214 220.217 164.1 219.272Z" fill="black"/>
<path d="M152.399 213.718L151.729 211.51C148.349 210.016 144.78 208.873 141.061 208.14C141.013 209.987 141.087 211.85 141.294 213.72L152.399 213.718Z" fill="black"/>
<path d="M109.899 213.718L110.569 211.509L114.563 198.329L109.315 197.058C108.139 197.499 106.973 197.971 105.824 198.482L101.207 213.717H106.164L109.899 213.718Z" fill="#AA9678"/>
<path d="M151.729 211.51L152.399 213.718H156.134H161.092L156.475 198.483C155.325 197.971 154.159 197.501 152.983 197.059L147.736 198.331L151.729 211.51Z" fill="#AA9678"/>
<path d="M101.357 216.796C101.402 216.763 101.448 216.731 101.494 216.699H101.364C101.362 216.731 101.359 216.762 101.357 216.796Z" fill="#C0B098"/>
<path d="M131.149 216.698H120.555H108.997H101.496C101.45 216.73 101.404 216.762 101.359 216.795C101.26 219.608 100.883 222.367 100.271 225.051C109.629 229.5 120.096 231.999 131.149 231.999V216.698Z" fill="#C0B098"/>
<path d="M160.933 216.698H160.803C160.849 216.73 160.895 216.762 160.939 216.795C160.937 216.762 160.933 216.731 160.933 216.698Z" fill="#AA9678"/>
<path d="M160.802 216.698H153.302H141.743H131.15V231.999C142.203 231.999 152.67 229.502 162.028 225.051C161.416 222.367 161.04 219.609 160.94 216.795C160.894 216.762 160.848 216.731 160.802 216.698Z" fill="#AA9678"/>
<path d="M164.1 219.272C163.969 217.93 163.888 216.576 163.888 215.209C163.888 214.387 163.221 213.719 162.398 213.719H161.091H156.133H152.398H141.294H131.149H121.002H109.899H106.164H101.207H99.8982C99.0745 213.719 98.4084 214.387 98.4084 215.209C98.4084 216.577 98.3278 217.931 98.1963 219.272C98.0512 220.757 97.8217 222.222 97.5215 223.664C98.4283 224.144 99.3425 224.611 100.27 225.052C100.882 222.368 101.258 219.61 101.358 216.796C101.359 216.764 101.363 216.731 101.364 216.699H101.495H108.996H120.554H131.148H141.74H153.3H160.799H160.93C160.931 216.731 160.935 216.764 160.936 216.796C161.035 219.609 161.412 222.368 162.024 225.052C162.953 224.611 163.867 224.144 164.772 223.664C164.475 222.22 164.245 220.757 164.1 219.272Z" fill="#8B7460"/>
<path d="M151.763 203.444C151.546 203.194 151.322 202.926 151.09 202.623C151.322 202.928 151.546 203.194 151.763 203.444Z" fill="#525353"/>
<path d="M175.4 139.949C175.4 139.949 175.401 139.948 175.401 139.948C175.4 139.947 175.4 139.947 175.399 139.947C175.399 139.947 175.398 139.947 175.399 139.948C175.399 139.948 175.399 139.949 175.4 139.949Z" fill="white"/>
<path d="M178.314 160.673C178.314 160.666 178.316 160.66 178.316 160.653C178.316 160.66 178.314 160.667 178.314 160.673Z" fill="white"/>
<path d="M179.085 143.977C179.073 143.96 179.061 143.946 179.049 143.929C178.452 143.098 177.835 142.34 177.202 141.652C177.201 141.649 177.199 141.647 177.196 141.646C177.197 141.648 177.2 141.651 177.202 141.652C177.196 141.646 177.191 141.638 177.186 141.632C176.899 141.321 176.608 141.022 176.314 140.74C176.203 140.634 176.089 140.541 175.977 140.439C175.792 140.271 175.607 140.098 175.42 139.943V139.946V146.641L177.984 158.384C178.011 158.476 178.046 158.561 178.07 158.656L179.846 160.647L179.863 160.627H181.723C181.725 160.455 181.735 160.285 181.735 160.112V160.11C181.735 154.571 180.825 149.248 179.176 144.263C179.145 144.169 179.118 144.072 179.085 143.977Z" fill="#BBBCBD"/>
<path d="M178.237 159.532C178.239 159.55 178.244 159.568 178.246 159.588C178.248 159.599 178.251 159.61 178.253 159.621C178.253 159.621 178.253 159.624 178.253 159.626C178.286 159.901 178.3 160.188 178.306 160.478C178.307 160.532 178.316 160.581 178.316 160.635C178.316 160.641 178.317 160.647 178.317 160.654C178.317 160.662 178.316 160.668 178.316 160.675C178.316 160.733 178.307 160.786 178.306 160.843C178.3 161.127 178.287 161.409 178.254 161.679V161.683C178.253 161.696 178.249 161.709 178.246 161.724C178.244 161.746 178.238 161.766 178.234 161.787C178.194 162.081 178.142 162.367 178.073 162.639L178.072 162.643L178.081 162.632C178.083 162.627 178.084 162.623 178.085 162.618L179.847 160.648L178.07 158.657L178.072 158.661C178.142 158.939 178.196 159.23 178.237 159.532Z" fill="#676A6A"/>
<path d="M178.233 161.787C178.238 161.75 178.248 161.716 178.253 161.679C178.287 161.408 178.299 161.127 178.305 160.843C178.306 160.778 178.316 160.719 178.316 160.654C178.316 160.593 178.308 160.538 178.306 160.478C178.3 160.188 178.287 159.901 178.253 159.626C178.249 159.594 178.241 159.564 178.236 159.532C178.195 159.231 178.141 158.94 178.071 158.662C178.046 158.565 178.011 158.48 177.983 158.385C177.813 157.822 177.58 157.324 177.304 156.911C177.267 156.856 177.23 156.801 177.191 156.751C177.116 156.649 177.04 156.55 176.959 156.462C176.84 156.333 176.717 156.213 176.587 156.115C176.538 156.078 176.485 156.052 176.435 156.019C176.323 155.947 176.208 155.883 176.088 155.835C176.038 155.814 175.987 155.794 175.935 155.778C175.767 155.726 175.596 155.689 175.419 155.689C175.241 155.689 175.071 155.726 174.903 155.778C174.851 155.794 174.8 155.814 174.749 155.835C174.63 155.883 174.516 155.947 174.403 156.019C174.353 156.052 174.3 156.077 174.251 156.115C174.121 156.213 173.998 156.333 173.879 156.462C173.799 156.55 173.723 156.649 173.647 156.751C173.609 156.803 173.57 156.857 173.533 156.912C173.258 157.326 173.025 157.824 172.855 158.387C172.847 158.409 172.84 158.431 172.834 158.454C172.759 158.712 172.7 158.985 172.65 159.265C172.635 159.351 172.615 159.432 172.604 159.52C172.559 159.833 172.536 160.159 172.531 160.493C172.53 160.539 172.523 160.584 172.523 160.629H172.535C172.535 163.372 173.832 165.595 175.432 165.595C175.708 165.595 175.973 165.523 176.225 165.399C176.266 165.379 176.306 165.358 176.345 165.334C176.451 165.275 176.552 165.208 176.652 165.13C176.706 165.086 176.757 165.033 176.809 164.983C176.937 164.864 177.059 164.729 177.174 164.579C177.253 164.475 177.333 164.369 177.406 164.252C177.453 164.177 177.495 164.095 177.539 164.016C177.619 163.867 177.696 163.711 177.766 163.544C177.79 163.485 177.818 163.428 177.841 163.366C177.929 163.135 178.007 162.893 178.072 162.638C178.141 162.367 178.194 162.081 178.233 161.787ZM175.523 159.992C174.922 159.992 174.436 159.158 174.436 158.13C174.436 157.102 174.922 156.268 175.523 156.268C176.123 156.268 176.609 157.102 176.609 158.13C176.609 159.158 176.123 159.992 175.523 159.992Z" fill="black"/>
<path d="M175.522 159.992C176.122 159.992 176.609 159.158 176.609 158.13C176.609 157.102 176.122 156.268 175.522 156.268C174.922 156.268 174.436 157.102 174.436 158.13C174.436 159.158 174.922 159.992 175.522 159.992Z" fill="white"/>
<path d="M172.855 158.387C173.025 157.822 173.259 157.325 173.534 156.912C173.571 156.856 173.61 156.803 173.648 156.75C173.723 156.649 173.799 156.551 173.88 156.461C173.999 156.331 174.123 156.215 174.252 156.115C174.302 156.078 174.354 156.052 174.404 156.019C174.515 155.945 174.631 155.883 174.75 155.835C174.8 155.814 174.851 155.794 174.903 155.778C175.071 155.726 175.242 155.689 175.419 155.689C175.597 155.689 175.768 155.725 175.936 155.778C175.988 155.794 176.038 155.814 176.089 155.835C176.207 155.883 176.323 155.945 176.435 156.019C176.486 156.052 176.538 156.078 176.588 156.115C176.718 156.215 176.841 156.331 176.96 156.461C177.041 156.55 177.118 156.649 177.192 156.75C177.231 156.803 177.268 156.856 177.305 156.911C177.58 157.325 177.812 157.822 177.983 158.385L175.419 146.643L172.855 158.387Z" fill="#909393"/>
<path d="M141.44 160.544C141.436 160.308 141.421 160.075 141.394 159.844C141.394 159.841 141.393 159.838 141.393 159.834C141.366 159.609 141.328 159.385 141.28 159.166C141.279 159.16 141.278 159.155 141.276 159.148C141.228 158.931 141.17 158.719 141.1 158.511C141.099 158.506 141.096 158.501 141.095 158.496C141.026 158.288 140.946 158.083 140.858 157.884C140.857 157.881 140.855 157.876 140.852 157.872C140.763 157.672 140.664 157.476 140.556 157.288C140.226 156.711 139.814 156.186 139.336 155.731C138.73 155.153 138.015 154.685 137.229 154.362C137.223 154.359 137.216 154.357 137.209 154.354C136.821 154.195 136.415 154.073 135.994 153.988C135.985 153.986 135.973 153.986 135.963 153.983C135.543 153.901 135.108 153.855 134.662 153.855C134.224 153.855 133.798 153.9 133.383 153.98C133.368 153.982 133.354 153.983 133.339 153.986C132.927 154.068 132.529 154.188 132.148 154.342C132.138 154.345 132.127 154.349 132.117 154.353C131.73 154.51 131.36 154.703 131.013 154.926L131.009 154.927C130.658 155.153 130.329 155.41 130.027 155.694L130.019 155.717L129.994 155.724C129.511 156.183 129.095 156.712 128.763 157.295C128.759 157.303 128.754 157.309 128.75 157.315C128.649 157.494 128.558 157.68 128.472 157.868C128.464 157.888 128.453 157.908 128.444 157.928C128.367 158.103 128.301 158.284 128.239 158.466C128.227 158.502 128.212 158.536 128.201 158.572C128.146 158.742 128.103 158.917 128.062 159.093C128.051 159.142 128.034 159.191 128.023 159.242C127.987 159.415 127.963 159.591 127.939 159.77C127.933 159.825 127.92 159.877 127.914 159.931C127.889 160.163 127.877 160.4 127.877 160.638C127.877 161.087 127.923 161.525 128.006 161.949C128.007 161.958 128.008 161.967 128.01 161.977C128.095 162.4 128.219 162.809 128.381 163.2C128.383 163.205 128.384 163.211 128.387 163.216C128.713 164.007 129.186 164.723 129.769 165.331C130.23 165.811 130.761 166.224 131.344 166.554C131.346 166.555 131.35 166.558 131.353 166.559C131.535 166.661 131.724 166.754 131.915 166.839C131.931 166.847 131.946 166.855 131.962 166.862C132.139 166.94 132.323 167.005 132.509 167.069C132.54 167.08 132.571 167.092 132.602 167.103C132.773 167.158 132.949 167.201 133.127 167.242C133.175 167.254 133.221 167.268 133.269 167.278C133.442 167.314 133.618 167.338 133.795 167.361C133.848 167.369 133.902 167.38 133.955 167.386C134.187 167.41 134.422 167.424 134.66 167.424C135.596 167.424 136.488 167.234 137.301 166.89C137.706 166.719 138.092 166.508 138.453 166.265C139.175 165.777 139.798 165.155 140.285 164.433C140.528 164.072 140.739 163.686 140.91 163.28C141.254 162.469 141.444 161.576 141.444 160.639C141.444 160.623 141.441 160.608 141.441 160.592C141.443 160.577 141.44 160.561 141.44 160.544ZM134.661 159.749C133.253 159.749 132.113 158.608 132.113 157.201C132.113 155.793 133.254 154.653 134.661 154.653C136.069 154.653 137.209 155.794 137.209 157.201C137.21 158.608 136.069 159.749 134.661 159.749Z" fill="black"/>
<path d="M134.663 159.748C136.07 159.748 137.211 158.607 137.211 157.2C137.211 155.793 136.07 154.652 134.663 154.652C133.256 154.652 132.115 155.793 132.115 157.2C132.115 158.607 133.256 159.748 134.663 159.748Z" fill="white"/>
<path d="M129.995 155.727L130.019 155.721L130.027 155.697L134.698 141.41C134.698 141.41 134.698 140.564 134.698 139.719C134.698 139.481 134.698 139.245 134.698 139.026C134.698 138.953 134.698 138.881 134.698 138.812C134.698 138.706 134.698 138.609 134.698 138.519C134.698 138.455 134.698 138.393 134.698 138.341C134.698 138.27 134.698 138.212 134.698 138.164C134.698 138.124 134.698 138.089 134.698 138.067C134.698 138.042 134.698 138.029 134.698 138.029C132.097 137.495 129.422 137.202 126.683 137.202C125.768 137.202 124.862 137.241 123.961 137.303C123.83 137.312 123.698 137.32 123.567 137.33C118.877 137.686 114.26 138.909 109.984 140.86C106.317 142.535 102.909 144.741 99.8468 147.355L99.8418 147.36C99.0194 148.059 98.2317 148.797 97.4614 149.552C97.3175 149.694 97.1711 149.833 97.0297 149.975C96.3053 150.706 95.6044 151.46 94.9272 152.237C94.7795 152.405 94.6357 152.578 94.4905 152.749C93.8108 153.552 93.1484 154.369 92.5207 155.215C92.4686 155.286 92.419 155.36 92.3669 155.431C91.7677 156.246 91.1984 157.082 90.6488 157.933C90.5422 158.099 90.4318 158.263 90.3263 158.43C89.8823 159.135 89.4679 159.859 89.0586 160.585H110.304H110.341L129.995 155.727Z" fill="#BBBCBD"/>
<path d="M147.965 154.118C148.008 153.561 148.044 153.003 148.073 152.446C148.111 151.691 148.137 150.935 148.152 150.18C148.163 149.593 148.162 149.006 148.16 148.42C148.158 148.25 148.163 148.081 148.161 147.911C148.145 146.399 148.086 144.884 147.993 143.37C147.99 143.367 147.985 143.364 147.981 143.361C147.978 143.357 147.977 143.354 147.975 143.35C147.969 143.346 147.947 143.334 147.928 143.323C147.909 143.313 147.894 143.303 147.859 143.284C147.581 143.124 146.898 142.733 146.285 142.385C146.273 142.377 146.259 142.37 146.247 142.362C146.092 142.274 145.942 142.19 145.806 142.113C145.804 142.112 145.799 142.108 145.799 142.108C145.682 142.042 145.584 141.988 145.494 141.937C145.475 141.927 145.45 141.912 145.434 141.904C145.335 141.848 145.257 141.806 145.212 141.783C144.233 141.276 143.235 140.806 142.22 140.377C139.8 139.354 136.54 138.459 134.703 138.026V139.312V139.612V139.717C134.703 140.563 134.703 141.407 134.703 141.407L139.334 155.718L139.339 155.731C139.816 156.186 140.228 156.711 140.558 157.288C140.666 157.477 140.765 157.672 140.855 157.872C140.857 157.876 140.858 157.879 140.861 157.884C140.95 158.083 141.028 158.287 141.098 158.496C141.099 158.501 141.101 158.506 141.103 158.511C141.171 158.719 141.23 158.931 141.279 159.148C141.28 159.154 141.281 159.159 141.282 159.166C141.331 159.384 141.369 159.607 141.395 159.834C141.395 159.838 141.397 159.84 141.397 159.844C141.424 160.074 141.439 160.307 141.442 160.544L141.46 160.582H147.13C147.513 158.507 147.78 156.404 147.95 154.293C147.954 154.235 147.96 154.177 147.965 154.118Z" fill="#E2DDDB"/>
<path d="M155.379 149.059C155.375 149.065 155.373 149.072 155.369 149.078C155.373 149.072 155.376 149.066 155.379 149.059Z" fill="#FBB040"/>
<path d="M141.489 180.975C142.775 179.695 143.989 178.47 145.148 177.268C145.836 176.554 146.509 175.847 147.151 175.15C151.89 170.006 155.369 165.192 157.462 159C157.512 158.852 157.561 158.658 157.608 158.441C157.616 158.408 157.623 158.376 157.631 158.341C157.68 158.11 157.727 157.853 157.774 157.563C157.793 157.363 157.813 157.17 157.83 156.983C157.304 154.286 156.283 151.666 155.383 149.077C155.387 149.086 155.389 149.095 155.393 149.103C155.388 149.098 155.371 149.082 155.367 149.078C155.194 148.915 155.013 148.762 154.838 148.601C154.305 148.11 153.763 147.63 153.211 147.164C151.555 145.768 149.816 144.495 147.99 143.37C148.083 144.884 148.141 146.399 148.157 147.911C148.16 148.081 148.155 148.25 148.156 148.42C148.159 149.006 148.16 149.593 148.149 150.18C148.134 150.935 148.108 151.691 148.069 152.446C148.041 153.004 148.005 153.561 147.961 154.118C147.956 154.177 147.95 154.234 147.946 154.292C147.778 156.405 147.51 158.506 147.126 160.581L146.46 163.731C145.07 169.37 142.244 174.485 139.921 179.767C139.304 181.168 138.72 182.584 138.208 184.027C138.161 184.16 138.111 184.299 138.062 184.435C138.788 183.672 139.431 183.013 139.919 182.53C140.453 182.002 140.976 181.485 141.489 180.975Z" fill="#FBB040"/>
<path d="M130.027 155.697C130.33 155.413 130.659 155.157 131.01 154.931L131.013 154.93C131.361 154.706 131.73 154.514 132.117 154.356C132.127 154.353 132.139 154.349 132.149 154.345C132.529 154.191 132.928 154.071 133.339 153.989C133.354 153.987 133.369 153.986 133.384 153.983C133.798 153.904 134.225 153.859 134.663 153.859C135.108 153.859 135.542 153.905 135.964 153.987C135.975 153.989 135.985 153.989 135.995 153.992C136.416 154.076 136.821 154.2 137.21 154.358C137.216 154.36 137.222 154.363 137.229 154.365C138.017 154.689 138.73 155.157 139.337 155.735L139.332 155.722L134.701 141.411L130.027 155.697Z" fill="#909393"/>
<path d="M128.383 163.202C128.223 162.812 128.098 162.402 128.012 161.979C128.011 161.97 128.01 161.962 128.008 161.952C127.925 161.528 127.879 161.09 127.879 160.641C127.879 160.401 127.892 160.166 127.917 159.934C127.923 159.879 127.934 159.827 127.941 159.772C127.965 159.595 127.989 159.418 128.026 159.244C128.037 159.193 128.052 159.145 128.064 159.095C128.105 158.919 128.149 158.744 128.203 158.574C128.214 158.538 128.229 158.505 128.242 158.469C128.304 158.286 128.369 158.105 128.446 157.93C128.455 157.911 128.466 157.891 128.475 157.871C128.56 157.682 128.651 157.496 128.753 157.318C128.756 157.31 128.761 157.304 128.765 157.298C129.097 156.715 129.513 156.185 129.997 155.726L110.342 160.581H110.305L129.772 165.332C129.189 164.724 128.717 164.009 128.39 163.217C128.387 163.213 128.385 163.207 128.383 163.202Z" fill="#676A6A"/>
<path d="M172.603 159.519C172.616 159.431 172.634 159.349 172.649 159.264C172.699 158.985 172.757 158.712 172.833 158.453C172.842 158.424 172.845 158.391 172.853 158.362L175.417 146.619V139.923C173.322 138.192 171.078 137.246 168.741 137.246C165.79 137.246 163.037 138.876 160.979 140.889C158.727 143.092 156.987 145.864 155.58 148.662C155.515 148.791 155.449 148.914 155.385 149.044C155.819 149.42 156.248 149.8 156.671 150.187C157.63 151.064 158.568 151.964 159.492 152.877C159.924 153.302 160.345 153.736 160.77 154.169C161.22 154.627 161.67 155.085 162.113 155.55C162.682 156.149 163.248 156.753 163.807 157.363C164.043 157.62 164.278 157.878 164.511 158.136C165.184 158.883 165.855 159.632 166.515 160.393L166.517 160.394C166.627 160.51 166.705 160.592 166.735 160.627H172.518C172.518 160.58 172.528 160.538 172.528 160.491C172.536 160.158 172.559 159.832 172.603 159.519Z" fill="#E2DDDB"/>
<path d="M155.385 149.076C155.383 149.07 155.382 149.064 155.379 149.059C155.375 149.065 155.373 149.071 155.369 149.078C155.373 149.082 155.39 149.098 155.395 149.103C155.393 149.095 155.389 149.086 155.385 149.076Z" fill="#E2DDDB"/>
<path d="M85.5711 167.972C85.5872 167.928 85.6058 167.886 85.6219 167.843C85.9941 166.869 86.4022 165.908 86.8314 164.956C86.9505 164.691 87.0745 164.429 87.1973 164.165C87.5484 163.418 87.9192 162.681 88.3038 161.951C88.4601 161.653 88.6127 161.355 88.7752 161.061C88.8645 160.899 88.9662 160.744 89.0567 160.581C89.4673 159.855 89.8804 159.131 90.3245 158.426C90.4299 158.259 90.5403 158.095 90.647 157.929C91.1965 157.079 91.7671 156.242 92.365 155.427C92.4171 155.356 92.4655 155.282 92.5188 155.211C93.1465 154.366 93.8089 153.548 94.4887 152.745C94.6338 152.574 94.7777 152.402 94.9253 152.233C95.6026 151.456 96.3022 150.702 97.0279 149.972C97.1705 149.829 97.3157 149.69 97.4595 149.549C98.2299 148.793 99.0175 148.056 99.84 147.357C99.8412 147.355 99.8437 147.353 99.8449 147.352C103.079 136.515 112.976 128.627 124.687 128.627C129.402 128.627 134.089 129.985 138.107 132.443C142.227 134.963 145.585 138.656 147.767 142.961C147.778 142.982 147.79 143.004 147.799 143.025C147.854 143.134 147.916 143.238 147.971 143.349C147.972 143.353 147.974 143.356 147.977 143.36C147.981 143.362 147.986 143.366 147.989 143.369C149.814 144.493 151.554 145.766 153.21 147.163C153.762 147.628 154.304 148.108 154.838 148.6C155.013 148.761 155.194 148.913 155.366 149.077C155.37 149.071 155.372 149.064 155.376 149.057C155.379 149.054 155.381 149.049 155.382 149.045C155.442 148.922 155.5 148.798 155.561 148.679C157.211 138.263 161.805 130.76 167.225 130.76C171.31 130.76 174.928 135.019 177.171 141.575L177.193 141.646C177.196 141.648 177.197 141.651 177.199 141.653C177.832 142.342 178.45 143.099 179.048 143.931C179.06 143.947 179.07 143.962 179.082 143.978C179.115 144.073 179.142 144.17 179.173 144.266L179.087 143.924C172.345 123.966 153.468 109.596 131.235 109.596C103.345 109.596 80.7383 132.205 80.7383 160.092C80.7383 165.59 81.6165 170.883 83.2477 175.809C83.2502 175.799 83.2527 175.79 83.2539 175.78C83.5752 174.294 83.9585 172.818 84.4063 171.357C84.7598 170.217 85.1481 169.088 85.5711 167.972Z" fill="#525353"/>
<path d="M179.848 160.649L178.086 162.619C178.085 162.624 178.084 162.628 178.083 162.633C178.016 162.891 177.934 163.134 177.843 163.367C177.82 163.429 177.794 163.486 177.768 163.546C177.697 163.711 177.622 163.868 177.541 164.017C177.497 164.097 177.454 164.179 177.408 164.253C177.335 164.371 177.257 164.476 177.176 164.58C177.061 164.731 176.939 164.866 176.811 164.985C176.759 165.034 176.708 165.088 176.654 165.131C176.554 165.211 176.451 165.276 176.347 165.336C176.308 165.358 176.268 165.381 176.227 165.4C175.975 165.523 175.71 165.596 175.434 165.596C173.834 165.596 172.537 163.374 172.537 160.631H172.525H172.523H166.74H166.723L166.726 160.635C167.806 161.881 168.867 163.145 169.913 164.42C169.925 164.435 169.938 164.451 169.952 164.466C170.969 165.708 171.972 166.962 172.963 168.222C173.012 168.284 173.061 168.345 173.11 168.407C174.05 169.607 174.98 170.814 175.902 172.023C175.991 172.141 176.082 172.258 176.171 172.374C177.146 173.657 178.112 174.943 179.07 176.231C179.076 176.239 179.084 176.249 179.09 176.258C180.751 171.342 181.68 166.091 181.738 160.63H181.726H179.866L179.848 160.649Z" fill="white"/>
<path d="M123.566 137.328C123.698 137.318 123.829 137.309 123.961 137.3C124.861 137.24 125.768 137.2 126.682 137.2C129.42 137.2 132.095 137.494 134.698 138.026C134.698 138.026 134.698 138.04 134.698 138.065C134.698 138.087 134.698 138.122 134.698 138.161C134.698 138.21 134.698 138.27 134.698 138.339C134.698 138.392 134.698 138.453 134.698 138.516C134.698 138.605 134.698 138.706 134.698 138.81C134.698 138.878 134.698 138.95 134.698 139.023C134.698 139.116 134.698 139.213 134.698 139.312V138.026C136.535 138.459 139.795 139.355 142.215 140.377C143.231 140.806 144.23 141.275 145.207 141.783C145.252 141.807 145.33 141.849 145.429 141.904C145.446 141.914 145.471 141.927 145.489 141.937C145.579 141.988 145.678 142.043 145.794 142.108C145.796 142.11 145.8 142.112 145.801 142.113C145.938 142.19 146.085 142.275 146.242 142.363C146.254 142.37 146.268 142.378 146.28 142.385C146.903 142.739 147.591 143.133 147.854 143.284C147.888 143.304 147.904 143.313 147.922 143.323C147.935 143.33 147.966 143.348 147.969 143.35C147.915 143.241 147.853 143.135 147.798 143.026C147.787 143.005 147.777 142.983 147.766 142.962C145.585 138.657 142.226 134.965 138.105 132.444C134.088 129.987 129.4 128.628 124.686 128.628C112.975 128.628 103.078 136.516 99.8438 147.353C102.906 144.738 106.313 142.533 109.981 140.858C114.259 138.906 118.877 137.684 123.566 137.328Z" fill="black"/>
<path d="M160.98 140.891C163.038 138.878 165.791 137.248 168.742 137.248C171.079 137.248 173.323 138.195 175.418 139.925C175.418 139.925 175.418 139.94 175.418 139.945C175.605 140.099 175.789 140.272 175.975 140.441C176.086 140.543 176.202 140.636 176.312 140.743C176.606 141.024 176.896 141.322 177.184 141.635C177.19 141.641 177.195 141.648 177.2 141.654C177.199 141.652 177.196 141.649 177.194 141.648L177.17 141.577C174.928 135.022 171.309 130.762 167.224 130.762C161.805 130.762 157.21 138.265 155.561 148.681L155.578 148.667C156.988 145.867 158.729 143.095 160.98 140.891Z" fill="black"/>
<path d="M113.158 207.195C113.62 207.372 114.089 207.532 114.556 207.696C119.78 209.526 125.389 210.534 131.239 210.534C137.909 210.534 144.27 209.229 150.099 206.88C150.408 206.756 150.709 206.619 151.014 206.489C151.509 206.278 152.001 206.061 152.487 205.835C152.922 205.633 153.358 205.432 153.786 205.219C153.683 205.231 153.578 205.251 153.475 205.264C151.663 205.467 149.866 205.479 148.108 205.228C137.718 203.734 135.416 198.724 135.746 193.507C134.998 193.075 134.236 192.59 133.462 192.028C125.471 186.231 120.729 180.055 120.729 180.055C120.729 180.055 126.893 184.813 136.1 188.375C136.298 188.452 136.482 188.517 136.677 188.591C137.108 187.103 137.616 185.689 138.064 184.436C138.112 184.3 138.162 184.161 138.209 184.028C138.722 182.586 139.306 181.17 139.922 179.769C142.246 174.487 145.07 169.371 146.462 163.732L147.128 160.583H141.458H141.446C141.446 160.586 141.446 160.59 141.446 160.594L141.443 160.595C141.443 160.611 141.446 160.626 141.446 160.642C141.446 161.579 141.256 162.47 140.912 163.283C140.74 163.689 140.53 164.074 140.287 164.435C139.799 165.157 139.177 165.78 138.455 166.267C138.094 166.512 137.708 166.722 137.302 166.893C136.491 167.236 135.598 167.426 134.662 167.426C134.423 167.426 134.189 167.414 133.957 167.389C133.902 167.383 133.85 167.372 133.797 167.364C133.62 167.342 133.443 167.317 133.271 167.281C133.223 167.271 133.177 167.256 133.128 167.245C132.951 167.204 132.775 167.161 132.604 167.106C132.573 167.096 132.542 167.082 132.511 167.071C132.326 167.009 132.141 166.942 131.964 166.864C131.947 166.857 131.933 166.849 131.916 166.842C131.724 166.756 131.536 166.664 131.354 166.561C131.352 166.56 131.348 166.558 131.346 166.557C130.762 166.228 130.231 165.815 129.77 165.333L110.303 160.583H89.0576C88.9658 160.744 88.8654 160.9 88.776 161.063C88.6135 161.357 88.461 161.656 88.3047 161.952C87.9201 162.681 87.548 163.418 87.1982 164.166C87.0741 164.429 86.9513 164.692 86.8323 164.958C86.4043 165.909 85.9962 166.87 85.6228 167.844C85.6067 167.888 85.5881 167.93 85.572 167.973C85.149 169.09 84.7607 170.218 84.4121 171.357C83.9656 172.818 83.581 174.294 83.2598 175.781C86.6053 185.982 93.1114 194.747 101.618 200.926C101.865 201.106 102.127 201.266 102.378 201.44C103.816 202.446 105.303 203.387 106.846 204.241C108.87 205.362 110.975 206.356 113.158 207.195Z" fill="white"/>
<path d="M148.023 191.511C147.946 192.051 147.893 192.584 147.878 193.097C147.848 194.031 147.913 194.918 148.049 195.757C148.14 196.316 148.262 196.853 148.408 197.367C148.627 198.138 148.903 198.859 149.212 199.525C149.519 200.191 149.86 200.803 150.21 201.359C150.327 201.543 150.445 201.722 150.563 201.894C150.74 202.152 150.917 202.396 151.092 202.624C151.324 202.928 151.549 203.194 151.766 203.445C152.692 204.511 153.422 205.09 153.422 205.09C153.422 205.09 153.427 205.107 153.437 205.137C153.447 205.167 153.461 205.211 153.479 205.265C153.582 205.254 153.686 205.234 153.789 205.22C156.04 204.939 158.309 204.328 160.547 203.523C161.688 203.113 162.824 202.667 163.943 202.157C164.284 202.001 164.618 201.829 164.957 201.665C176.524 196.072 186.209 186.179 186.209 186.179C171.674 193.319 157.469 193.035 148.023 191.511Z" fill="#9F2255"/>
<path d="M175.9 172.024C174.978 170.814 174.049 169.607 173.108 168.408C173.059 168.346 173.01 168.285 172.961 168.223C171.97 166.962 170.967 165.709 169.95 164.467C169.937 164.453 169.925 164.436 169.911 164.421C168.864 163.146 167.804 161.882 166.724 160.636C166.656 160.556 166.588 160.477 166.519 160.397C165.859 159.638 165.188 158.888 164.514 158.141C164.28 157.883 164.046 157.625 163.811 157.368C163.251 156.758 162.687 156.154 162.116 155.555C161.672 155.09 161.223 154.632 160.773 154.174C160.349 153.742 159.926 153.307 159.495 152.882C158.569 151.97 157.632 151.069 156.674 150.192C156.25 149.805 155.821 149.423 155.387 149.047C155.384 149.052 155.383 149.056 155.381 149.06C156.294 151.682 157.334 154.338 157.855 157.072C157.99 157.783 158.103 158.476 158.194 159.152C159.465 168.618 156.432 174.798 151.615 182.928C151.27 183.511 150.915 184.102 150.553 184.708C149.451 186.544 148.745 188.283 148.337 189.916C148.201 190.461 148.098 190.993 148.023 191.513C157.469 193.037 171.674 193.321 186.207 186.18C186.207 186.18 183.358 181.991 179.068 176.233C178.109 174.945 177.143 173.659 176.169 172.376C176.08 172.257 175.989 172.141 175.9 172.024Z" fill="#E2066F"/>
<path d="M153.419 205.088C153.419 205.088 152.69 204.51 151.763 203.444C151.546 203.193 151.323 202.926 151.09 202.622C150.915 202.394 150.737 202.151 150.56 201.893C150.442 201.721 150.324 201.542 150.208 201.357C149.858 200.803 149.517 200.191 149.209 199.524C148.902 198.858 148.626 198.137 148.405 197.365C148.259 196.851 148.137 196.313 148.047 195.755C147.912 194.917 147.847 194.03 147.876 193.096C147.892 192.582 147.944 192.05 148.021 191.509C148.095 190.989 148.198 190.456 148.335 189.913C148.743 188.28 149.449 186.541 150.55 184.704C150.554 184.699 150.556 184.694 150.559 184.689C150.919 184.09 151.27 183.502 151.612 182.925C156.429 174.795 159.462 168.615 158.191 159.15C158.101 158.474 157.988 157.781 157.853 157.069C157.781 157.561 157.706 157.984 157.631 158.34C157.623 158.374 157.616 158.407 157.608 158.44C157.56 158.656 157.512 158.852 157.462 158.998C155.369 165.191 151.89 170.005 147.151 175.149C146.509 175.846 145.836 176.553 145.148 177.266C143.989 178.467 142.775 179.694 141.489 180.974C140.976 181.484 140.453 182.002 139.921 182.53C139.432 183.013 138.789 183.673 138.064 184.435C137.616 185.689 137.106 187.103 136.677 188.589C136.483 188.516 136.299 188.45 136.1 188.373C126.894 184.812 120.729 180.054 120.729 180.054C120.729 180.054 125.471 186.23 133.462 192.026C134.236 192.588 134.997 193.073 135.745 193.505C135.415 198.722 137.718 203.733 148.108 205.226C149.864 205.479 151.663 205.467 153.475 205.262C153.457 205.209 153.443 205.164 153.433 205.134C153.424 205.106 153.419 205.088 153.419 205.088Z" fill="black"/>
</svg>
