<svg width="1000" height="320" viewBox="0 0 1000 320" fill="none" xmlns="http://www.w3.org/2000/svg">
<path fill-rule="evenodd" clip-rule="evenodd" d="M327.602 69.8699H81.1056C65.5061 69.8699 52.878 82.6218 53.0009 98.0974V192.189C53.0009 207.789 65.6299 220.417 81.2294 220.417H197.977L251.338 250.13L239.205 220.417H327.602C343.201 220.417 355.829 207.789 355.829 192.189V98.0974C355.829 82.498 343.201 69.8699 327.602 69.8699ZM75.9063 91.6595C72.4397 91.9072 69.8398 93.1452 68.1065 95.4975C66.3733 97.726 65.7543 100.573 66.1257 103.792C73.4302 150.22 80.2394 181.542 86.5535 197.761C89.0297 203.703 91.8772 206.551 95.2199 206.304C100.42 205.932 106.61 198.751 113.914 184.761C117.752 176.837 123.695 164.953 131.742 149.105C138.428 172.504 147.589 190.085 159.103 201.846C162.323 205.189 165.665 206.675 168.884 206.427C171.732 206.179 173.96 204.694 175.445 201.97C176.684 199.618 177.179 196.894 176.931 193.799C176.188 182.533 177.303 166.809 180.398 146.629C183.616 125.83 187.579 110.849 192.407 101.935C193.397 100.078 193.768 98.2212 193.645 95.9927C193.397 93.1452 192.159 90.7929 189.807 88.9359C187.455 87.0788 184.855 86.2122 182.007 86.4597C178.417 86.7073 175.693 88.4406 173.836 91.9072C166.161 105.897 160.713 128.554 157.494 160C152.789 148.115 148.827 134.125 145.732 117.659C144.371 110.354 141.028 106.888 135.58 107.259C131.866 107.507 128.771 109.983 126.295 114.687L99.1817 166.314C94.7247 148.362 90.5153 126.449 86.6773 100.573C85.8107 94.1357 82.2203 91.1643 75.9063 91.6595ZM314.479 100.574C323.269 102.431 329.831 107.136 334.288 114.935C338.25 121.621 340.23 129.668 340.23 139.325C340.23 152.077 337.012 163.714 330.573 174.362C323.145 186.742 313.488 192.932 301.479 192.932C299.375 192.932 297.146 192.685 294.793 192.189C286.004 190.333 279.442 185.628 274.985 177.828C271.023 171.019 269.042 162.848 269.042 153.315C269.042 140.563 272.262 128.925 278.699 118.402C286.251 106.021 295.908 99.8311 307.794 99.8311C309.898 99.8311 312.127 100.079 314.479 100.574ZM309.279 167.552C313.86 163.467 316.955 157.4 318.689 149.229C319.184 146.382 319.555 143.287 319.555 140.068C319.555 136.477 318.812 132.639 317.326 128.801C315.469 123.973 312.993 121.373 310.021 120.754C305.565 119.888 301.232 122.364 297.146 128.43C293.804 133.135 291.698 138.087 290.585 143.163C289.965 146.01 289.717 149.106 289.717 152.201C289.717 155.791 290.46 159.629 291.946 163.467C293.804 168.295 296.279 170.895 299.251 171.514C302.346 172.133 305.688 170.771 309.279 167.552ZM256.662 114.935C252.204 107.136 245.519 102.431 236.853 100.574C234.5 100.079 232.272 99.8311 230.167 99.8311C218.282 99.8311 208.625 106.021 201.073 118.402C194.635 128.925 191.416 140.563 191.416 153.315C191.416 162.848 193.397 171.019 197.359 177.828C201.816 185.628 208.378 190.333 217.167 192.189C219.52 192.685 221.748 192.932 223.853 192.932C235.862 192.932 245.519 186.742 252.947 174.362C259.386 163.714 262.604 152.077 262.604 139.325C262.604 129.668 260.623 121.621 256.662 114.935ZM241.062 149.229C239.329 157.4 236.233 163.467 231.653 167.552C228.062 170.771 224.72 172.133 221.625 171.514C218.653 170.895 216.177 168.295 214.32 163.467C212.834 159.629 212.091 155.791 212.091 152.201C212.091 149.106 212.339 146.01 212.959 143.163C214.073 138.087 216.177 133.135 219.52 128.43C223.606 122.364 227.939 119.888 232.396 120.754C235.367 121.373 237.843 123.973 239.7 128.801C241.186 132.639 241.929 136.477 241.929 140.068C241.929 143.287 241.681 146.382 241.062 149.229Z" fill="#7F54B3"/>
<path fill-rule="evenodd" clip-rule="evenodd" d="M387.152 113.821C378.857 121.992 374.771 132.391 374.771 145.019C374.771 158.514 378.857 169.533 387.029 177.828C395.2 186.123 405.847 190.332 419.094 190.332C422.932 190.332 427.265 189.713 431.97 188.351V168.294C427.637 169.533 423.922 170.152 420.703 170.152C414.141 170.152 408.942 167.923 404.98 163.59C401.019 159.133 399.038 153.191 399.038 145.638C399.038 138.582 401.019 132.763 404.856 128.306C408.818 123.725 413.646 121.496 419.589 121.496C423.427 121.496 427.513 122.115 431.97 123.353V103.297C427.884 102.183 423.304 101.688 418.475 101.688C405.847 101.564 395.447 105.649 387.152 113.821ZM473.073 101.564C461.683 101.564 452.769 105.402 446.331 112.954C439.893 120.506 436.798 131.153 436.798 144.772C436.798 159.505 440.017 170.771 446.331 178.571C452.645 186.371 461.931 190.332 474.064 190.332C485.825 190.332 494.862 186.371 501.177 178.571C507.491 170.771 510.71 159.752 510.71 145.638C510.71 131.525 507.491 120.63 501.053 112.954C494.491 105.402 485.206 101.564 473.073 101.564ZM482.853 165.942C480.625 169.409 477.282 171.143 473.073 171.143C469.111 171.143 466.14 169.409 464.035 165.942C461.931 162.476 460.94 155.543 460.94 145.019C460.94 128.801 465.026 120.754 473.321 120.754C481.987 120.754 486.444 128.925 486.444 145.391C486.32 155.543 485.082 162.476 482.853 165.942ZM571.87 103.916L567.412 122.858C566.298 127.687 565.184 132.639 564.194 137.715L561.718 150.839C559.366 137.715 556.146 122.115 552.061 103.916H523.338L512.567 188.227H534.109L539.928 130.163L554.661 188.227H570.013L584.126 130.287L590.193 188.227H612.725L601.335 103.916H571.87ZM674.999 103.916L670.543 122.858C669.428 127.687 668.314 132.639 667.323 137.715L664.847 150.839C662.495 137.715 659.276 122.115 655.19 103.916H626.468L615.697 188.227H637.238L643.057 130.163L657.79 188.227H673.142L687.132 130.287L693.199 188.227H715.731L704.341 103.916H674.999ZM745.073 154.924H765.253V137.467H745.073V121.992H768.348V104.04H722.293V188.351H768.473V170.4H745.073V154.924ZM832.603 141.553C834.956 137.715 836.193 133.753 836.193 129.668C836.193 121.744 833.098 115.43 826.908 110.849C820.718 106.268 812.176 103.916 801.528 103.916H775.034V188.227H797.814V149.848H798.186L816.632 188.227H840.651L822.451 150.219C826.784 148.238 830.251 145.391 832.603 141.553ZM797.69 140.191V120.135C803.138 120.258 806.975 121.125 809.328 122.858C811.68 124.592 812.794 127.315 812.794 131.277C812.794 137.096 807.718 140.067 797.69 140.191ZM849.561 113.821C841.269 121.992 837.184 132.391 837.184 145.019C837.184 158.514 841.269 169.533 849.443 177.828C857.615 186.123 868.256 190.332 881.508 190.332C885.345 190.332 889.681 189.713 894.38 188.351V168.294C890.052 169.533 886.334 170.152 883.114 170.152C876.555 170.152 871.358 167.923 867.394 163.59C863.43 159.133 861.452 153.191 861.452 145.638C861.452 138.582 863.43 132.763 867.267 128.306C871.231 123.725 876.057 121.496 881.998 121.496C885.836 121.496 889.926 122.115 894.38 123.353V103.297C890.298 102.183 885.717 101.688 880.891 101.688C868.383 101.564 857.861 105.649 849.561 113.821ZM923.478 170.152V154.8H943.653V137.343H923.478V121.868H946.873V103.916H900.82V188.227H946.999V170.275H923.478V170.152Z" fill="black"/>
</svg>
